<?xml version="1.0" encoding="UTF-8" standalone="no"?>
<!-- Created with Inkscape (http://www.inkscape.org/) -->

<svg
   width="210mm"
   height="297mm"
   viewBox="0 0 210 297"
   version="1.1"
   id="svg1119"
   inkscape:version="1.2.2 (732a01da63, 2022-12-09)"
   sodipodi:docname="nccs2.svg"
   xmlns:inkscape="http://www.inkscape.org/namespaces/inkscape"
   xmlns:sodipodi="http://sodipodi.sourceforge.net/DTD/sodipodi-0.dtd"
   xmlns="http://www.w3.org/2000/svg"
   xmlns:svg="http://www.w3.org/2000/svg">
  <sodipodi:namedview
     id="namedview1121"
     pagecolor="#ffffff"
     bordercolor="#000000"
     borderopacity="0.25"
     inkscape:showpageshadow="2"
     inkscape:pageopacity="0.0"
     inkscape:pagecheckerboard="0"
     inkscape:deskcolor="#d1d1d1"
     inkscape:document-units="mm"
     showgrid="false"
     inkscape:zoom="2.932688"
     inkscape:cx="314.21686"
     inkscape:cy="702.76825"
     inkscape:window-width="1920"
     inkscape:window-height="1009"
     inkscape:window-x="-8"
     inkscape:window-y="-8"
     inkscape:window-maximized="1"
     inkscape:current-layer="g1087" />
  <defs
     id="defs1116" />
  <g
     inkscape:label="Layer 1"
     inkscape:groupmode="layer"
     id="layer1">
    <g
       id="g1087"
       transform="matrix(0.26458333,0,0,0.26458333,-44.078701,115.49733)">
      <path
         fill="#99adb7"
         d="m 428.87886,348.8391 c 0,2.658 -2.155,4.813 -4.813,4.813 h -23.263 c -2.658,0 -4.813,-2.155 -4.813,-4.813 v -99.201 c 0,-2.659 2.155,-4.813 4.813,-4.813 h 23.263 c 2.659,0 4.813,2.155 4.813,4.813 z"
         id="path6"
         inkscape:export-filename="nccs-gray.png"
         inkscape:export-xdpi="96"
         inkscape:export-ydpi="96"
         style="fill:#4c7189;fill-opacity:1" />
      <path
         fill="#4c7189"
         d="m 475.94086,346.8261 c 0,3.77 -2.154,6.826 -4.813,6.826 h -23.264 c -2.658,0 -4.813,-3.056 -4.813,-6.826 v -119.776 c 0,-3.77 2.155,-6.826 4.813,-6.826 h 23.264 c 2.658,0 4.813,3.056 4.813,6.826 z"
         id="path8"
         style="fill:#4c7189;fill-opacity:1" />
      <path
         fill="#99adb7"
         d="m 523.00186,348.8391 c 0,2.658 -2.155,4.813 -4.813,4.813 h -23.264 c -2.658,0 -4.813,-2.155 -4.813,-4.813 v -111.769 c 0,-2.658 2.154,-4.813 4.813,-4.813 h 23.264 c 2.658,0 4.813,2.155 4.813,4.813 z"
         id="path10"
         style="fill:#4c7189;fill-opacity:1" />
      <path
         fill="#4c7189"
         d="m 570.06386,348.8391 c 0,2.658 -2.154,4.813 -4.813,4.813 h -23.264 c -2.658,0 -4.813,-2.155 -4.813,-4.813 v -152.235 c 0,-2.658 2.155,-4.813 4.813,-4.813 h 23.264 c 2.658,0 4.813,2.155 4.813,4.813 z"
         id="path12"
         style="fill:#4c7189;fill-opacity:1" />
      <path
         fill="#99adb7"
         d="m 434.47086,300.7761 h -6.5 c -0.001,2.182 -0.438,4.227 -1.229,6.099 -1.185,2.804 -3.181,5.21 -5.686,6.901 -2.509,1.691 -5.49,2.67 -8.758,2.673 -2.182,-10e-4 -4.227,-0.438 -6.099,-1.229 -2.805,-1.185 -5.211,-3.181 -6.902,-5.686 -1.691,-2.509 -2.67,-5.49 -2.673,-8.758 0.001,-2.182 0.438,-4.227 1.229,-6.099 1.185,-2.805 3.181,-5.211 5.686,-6.902 2.509,-1.691 5.49,-2.67 8.759,-2.673 2.182,10e-4 4.227,0.438 6.099,1.229 2.804,1.185 5.21,3.181 6.901,5.686 1.691,2.509 2.67,5.49 2.673,8.759 h 6.5 6.5 c 0.003,-7.897 -3.22,-15.107 -8.398,-20.275 -5.168,-5.179 -12.378,-8.402 -20.275,-8.398 -7.897,-0.003 -15.107,3.219 -20.275,8.398 -5.179,5.168 -8.401,12.378 -8.398,20.275 -0.003,7.897 3.219,15.106 8.398,20.275 5.168,5.178 12.377,8.401 20.275,8.398 7.897,0.003 15.106,-3.22 20.275,-8.398 5.178,-5.168 8.401,-12.378 8.398,-20.275 z"
         id="path88"
         style="fill:#4c7189;fill-opacity:1" />
      <circle
         fill="#f5f5f5"
         cx="412.29788"
         cy="300.77609"
         r="22.173"
         id="circle90"
         style="fill:#ffffff;fill-opacity:1" />
      <path
         fill="#4c7189"
         d="m 481.67186,273.2301 h -6.5 c -10e-4,2.182 -0.438,4.227 -1.229,6.099 -1.185,2.804 -3.181,5.21 -5.686,6.901 -2.509,1.691 -5.49,2.67 -8.759,2.673 -2.182,-10e-4 -4.227,-0.438 -6.099,-1.229 -2.805,-1.185 -5.211,-3.181 -6.902,-5.686 -1.691,-2.51 -2.67,-5.49 -2.673,-8.759 10e-4,-2.182 0.438,-4.227 1.229,-6.099 1.185,-2.805 3.181,-5.211 5.686,-6.902 2.509,-1.691 5.49,-2.67 8.759,-2.673 2.182,0.001 4.228,0.438 6.099,1.229 2.804,1.185 5.21,3.181 6.901,5.686 1.691,2.509 2.67,5.49 2.673,8.759 h 6.501 6.5 c 0.003,-7.897 -3.219,-15.107 -8.398,-20.275 -5.168,-5.179 -12.378,-8.402 -20.275,-8.398 -7.897,-0.003 -15.107,3.219 -20.275,8.398 -5.179,5.168 -8.401,12.378 -8.398,20.275 -0.003,7.897 3.219,15.107 8.398,20.275 5.168,5.178 12.378,8.401 20.275,8.398 7.897,0.003 15.107,-3.219 20.275,-8.398 5.179,-5.168 8.401,-12.377 8.398,-20.275 h -6.5 z"
         id="path92"
         style="fill:#4c7189;fill-opacity:1" />
      <circle
         fill="#f5f5f5"
         cx="459.49887"
         cy="273.2301"
         r="22.173"
         id="circle94"
         style="fill:#ffffff;fill-opacity:1" />
      <path
         fill="#99adb7"
         d="m 530.43886,282.1731 h -6.5 c -10e-4,2.182 -0.438,4.227 -1.229,6.099 -1.185,2.804 -3.181,5.21 -5.686,6.901 -2.51,1.691 -5.49,2.67 -8.759,2.673 -2.182,-10e-4 -4.228,-0.438 -6.099,-1.229 -2.805,-1.185 -5.211,-3.181 -6.902,-5.686 -1.691,-2.509 -2.67,-5.49 -2.673,-8.758 10e-4,-2.182 0.438,-4.227 1.229,-6.099 1.185,-2.804 3.181,-5.21 5.686,-6.902 2.51,-1.691 5.49,-2.67 8.759,-2.673 2.182,10e-4 4.228,0.438 6.099,1.229 2.805,1.185 5.211,3.181 6.902,5.686 1.69,2.509 2.67,5.49 2.673,8.758 h 6.5 6.5 c 0.003,-7.897 -3.22,-15.107 -8.398,-20.275 -5.169,-5.179 -12.378,-8.401 -20.275,-8.398 -7.897,-0.003 -15.107,3.219 -20.275,8.398 -5.179,5.168 -8.402,12.378 -8.398,20.275 -0.003,7.897 3.22,15.106 8.398,20.275 5.168,5.179 12.378,8.401 20.275,8.398 7.897,0.003 15.106,-3.219 20.275,-8.398 5.179,-5.168 8.401,-12.377 8.398,-20.275 h -6.5 z"
         id="path96"
         style="fill:#4c7189;fill-opacity:1" />
      <circle
         fill="#f5f5f5"
         cx="508.26489"
         cy="282.1731"
         r="22.174"
         id="circle98"
         style="fill:#ffffff;fill-opacity:1" />
      <path
         fill="#4c7189"
         d="m 578.66286,256.2661 h -6.5 c -10e-4,2.182 -0.438,4.227 -1.229,6.099 -1.185,2.804 -3.181,5.21 -5.686,6.902 -2.51,1.691 -5.49,2.67 -8.759,2.673 -2.182,-10e-4 -4.227,-0.438 -6.098,-1.229 -2.805,-1.185 -5.21,-3.181 -6.901,-5.686 -1.69,-2.509 -2.67,-5.49 -2.673,-8.759 10e-4,-2.182 0.438,-4.227 1.229,-6.099 1.185,-2.804 3.181,-5.21 5.686,-6.901 2.51,-1.691 5.489,-2.67 8.758,-2.673 2.182,0.001 4.228,0.438 6.099,1.229 2.805,1.185 5.211,3.181 6.902,5.686 1.69,2.509 2.67,5.49 2.673,8.758 h 6.499 6.5 c 0.003,-7.897 -3.22,-15.106 -8.398,-20.275 -5.169,-5.179 -12.378,-8.401 -20.275,-8.398 -7.897,-0.003 -15.106,3.22 -20.274,8.398 -5.178,5.168 -8.4,12.377 -8.397,20.274 -0.003,7.897 3.22,15.106 8.397,20.275 5.168,5.179 12.377,8.402 20.274,8.398 7.897,0.003 15.106,-3.219 20.275,-8.398 5.179,-5.168 8.401,-12.378 8.398,-20.275 h -6.5 z"
         id="path100"
         style="fill:#4c7189;fill-opacity:1" />
      <circle
         fill="#f5f5f5"
         cx="556.48987"
         cy="256.26611"
         r="22.173"
         id="circle102"
         style="fill:#ffffff;fill-opacity:1" />
      <polyline
         fill="#f5f5f5"
         points="421.82,219.106 473.968,182.973 469.058,175.885 416.909,212.019  "
         id="polyline104"
         transform="translate(-5.6561361,87.2661)"
         style="fill:#ffffff;fill-opacity:1" />
      <polygon
         fill="#f5f5f5"
         points="575.122,152.694 521.152,192.977 477.586,178.177 474.473,186.218 522.738,202.837 580.6,159.354 "
         id="polygon106"
         transform="translate(-5.6561361,87.2661)"
         style="fill:#ffffff;fill-opacity:1" />
      <polygon
         fill="#4c7189"
         points="423.936,201.412 429.114,201.412 429.114,224.067 424.81,224.067 413.514,210.312 413.514,224.067 408.336,224.067 408.336,201.412 412.673,201.412 423.936,215.167 "
         id="polygon108"
         transform="translate(-5.6561361,87.2661)"
         style="fill:#4c7189;fill-opacity:1" />
      <path
         fill="#99adb7"
         d="m 448.58886,273.6841 c 0,-6.829 5.243,-11.716 12.298,-11.716 3.916,0 7.185,1.424 9.321,4.013 l -3.366,3.107 c -1.521,-1.748 -3.431,-2.654 -5.696,-2.654 -4.24,0 -7.25,2.978 -7.25,7.25 0,4.271 3.01,7.249 7.25,7.249 2.266,0 4.175,-0.906 5.696,-2.686 l 3.366,3.106 c -2.136,2.621 -5.405,4.046 -9.353,4.046 -7.023,0.001 -12.266,-4.887 -12.266,-11.715 z"
         id="path110"
         style="fill:#4c7189;fill-opacity:1" />
      <path
         fill="#4c7189"
         d="m 497.39586,282.5831 c 0,-6.829 5.243,-11.716 12.298,-11.716 3.916,0 7.186,1.424 9.321,4.013 l -3.366,3.107 c -1.521,-1.748 -3.43,-2.654 -5.695,-2.654 -4.24,0 -7.25,2.978 -7.25,7.25 0,4.271 3.01,7.249 7.25,7.249 2.266,0 4.174,-0.906 5.695,-2.686 l 3.366,3.106 c -2.136,2.622 -5.405,4.046 -9.353,4.046 -7.023,0.001 -12.266,-4.886 -12.266,-11.715 z"
         id="path112"
         style="fill:#4c7189;fill-opacity:1" />
      <path
         fill="#99adb7"
         d="m 547.84686,264.8301 1.78,-3.948 c 1.909,1.392 4.758,2.362 7.476,2.362 3.106,0 4.369,-1.035 4.369,-2.427 0,-4.24 -13.172,-1.327 -13.172,-9.741 0,-3.852 3.106,-7.056 9.548,-7.056 2.848,0 5.76,0.68 7.863,2.007 l -1.617,3.98 c -2.104,-1.197 -4.272,-1.78 -6.279,-1.78 -3.107,0 -4.305,1.165 -4.305,2.589 0,4.176 13.173,1.295 13.173,9.612 0,3.787 -3.14,7.023 -9.612,7.023 -3.592,0.002 -7.217,-1.067 -9.224,-2.621 z"
         id="path114"
         style="fill:#4c7189;fill-opacity:1" />
    </g>
  </g>
</svg>
