<?xml version="1.0" encoding="UTF-8" standalone="no"?>
<!-- Created with Inkscape (http://www.inkscape.org/) -->

<svg
   width="210mm"
   height="297mm"
   viewBox="0 0 210 297"
   version="1.1"
   id="svg13804"
   inkscape:version="1.2.2 (732a01da63, 2022-12-09)"
   sodipodi:docname="nccs.svg"
   xmlns:inkscape="http://www.inkscape.org/namespaces/inkscape"
   xmlns:sodipodi="http://sodipodi.sourceforge.net/DTD/sodipodi-0.dtd"
   xmlns="http://www.w3.org/2000/svg"
   xmlns:svg="http://www.w3.org/2000/svg">
  <sodipodi:namedview
     id="namedview13806"
     pagecolor="#ffffff"
     bordercolor="#000000"
     borderopacity="0.25"
     inkscape:showpageshadow="2"
     inkscape:pageopacity="0.0"
     inkscape:pagecheckerboard="0"
     inkscape:deskcolor="#d1d1d1"
     inkscape:document-units="mm"
     showgrid="false"
     inkscape:zoom="1.0368618"
     inkscape:cx="291.74573"
     inkscape:cy="498.61998"
     inkscape:window-width="1920"
     inkscape:window-height="1009"
     inkscape:window-x="-8"
     inkscape:window-y="-8"
     inkscape:window-maximized="1"
     inkscape:current-layer="layer1" />
  <defs
     id="defs13801" />
  <g
     inkscape:label="Layer 1"
     inkscape:groupmode="layer"
     id="layer1">
    <rect
       y="87.461937"
       fill="#4c7189"
       width="264.58334"
       height="96.453995"
       id="rect4"
       x="-30.164083"
       style="fill:#1275a3;fill-opacity:1;stroke-width:0.357211" />
    <path
       fill="#99adb7"
       d="m 90.798689,153.87712 c 0,0.58156 -0.47148,1.05304 -1.0533,1.05304 h -5.09032 c -0.58156,0 -1.05304,-0.47148 -1.05304,-1.05304 v -21.70641 c 0,-0.58182 0.47148,-1.05305 1.05304,-1.05305 h 5.09032 c 0.58182,0 1.0533,0.47123 1.0533,1.05305 z"
       id="path116"
       style="stroke-width:0.264583"
       inkscape:export-filename="nccs-gray2.png"
       inkscape:export-xdpi="259.76147"
       inkscape:export-ydpi="259.76147" />
    <path
       fill="#f5f5f5"
       d="m 101.09628,153.43686 c 0,0.8247 -0.47149,1.49357 -1.05304,1.49357 h -5.090591 c -0.58155,0 -1.05304,-0.6686 -1.05304,-1.49357 v -26.20884 c 0,-0.82497 0.47149,-1.49357 1.05304,-1.49357 h 5.090591 c 0.58155,0 1.05304,0.66834 1.05304,1.49357 z"
       id="path118"
       style="fill:#99adb7;fill-opacity:1;stroke-width:0.264583" />
    <path
       fill="#99adb7"
       d="m 111.39386,153.87712 c 0,0.58156 -0.47149,1.05304 -1.05304,1.05304 h -5.09058 c -0.58156,0 -1.05305,-0.47148 -1.05305,-1.05304 v -24.45649 c 0,-0.58156 0.47149,-1.05305 1.05305,-1.05305 h 5.09058 c 0.58155,0 1.05304,0.47149 1.05304,1.05305 z"
       id="path120"
       style="stroke-width:0.264583" />
    <path
       fill="#f5f5f5"
       d="m 121.69144,153.87712 c 0,0.58156 -0.47122,1.05304 -1.05277,1.05304 h -5.09032 c -0.58156,0 -1.05331,-0.47148 -1.05331,-1.05304 v -33.31077 c 0,-0.58182 0.47175,-1.05305 1.05331,-1.05305 h 5.09032 c 0.58155,0 1.05277,0.47123 1.05277,1.05305 z"
       id="path122"
       style="fill:#99adb7;fill-opacity:1;stroke-width:0.264583" />
    <path
       fill="#99adb7"
       d="m 92.022129,143.3602 h -1.42214 c -7.9e-4,0.95171 -0.38153,1.79996 -1.00436,2.42517 -0.62521,0.62283 -1.47346,1.00383 -2.42517,1.00436 -0.95144,-5.3e-4 -1.79996,-0.38153 -2.42517,-1.00436 -0.62283,-0.62521 -1.00356,-1.47346 -1.00436,-2.42517 8e-4,-0.95144 0.38153,-1.79996 1.00436,-2.42517 0.62521,-0.62283 1.47347,-1.00383 2.42517,-1.00436 0.95144,5.3e-4 1.79996,0.38153 2.42491,1.00436 0.62283,0.62521 1.00383,1.47373 1.00462,2.42517 h 1.42214 1.42213 c 8e-4,-1.72799 -0.70458,-3.30544 -1.83753,-4.43653 -1.13083,-1.13321 -2.70827,-1.83833 -4.43653,-1.8378 -1.728,-5.3e-4 -3.30571,0.70459 -4.43654,1.8378 -1.13321,1.13083 -1.83832,2.70827 -1.83753,4.43653 -7.9e-4,1.72799 0.70459,3.3057 1.83753,4.43653 1.13083,1.13321 2.70828,1.83833 4.43654,1.8378 1.72799,5.3e-4 3.30544,-0.70459 4.43653,-1.8378 1.13321,-1.13056 1.83833,-2.70827 1.83753,-4.43653 z"
       id="path124"
       style="stroke-width:0.264583" />
    <circle
       fill="#f5f5f5"
       cx="87.170464"
       cy="143.36021"
       r="4.8516645"
       id="circle126"
       style="stroke-width:0.264583" />
    <path
       fill="#4c7189"
       d="m 102.3504,137.33299 h -1.42213 c -8e-4,0.95171 -0.38153,1.79996 -1.004361,2.42491 -0.62495,0.62283 -1.47347,1.00383 -2.42517,1.00436 -0.95171,-5.3e-4 -1.79996,-0.38153 -2.42517,-1.00436 -0.62283,-0.62495 -1.00357,-1.4732 -1.00436,-2.42491 7.9e-4,-0.95171 0.38153,-1.79996 1.00436,-2.42491 0.62494,-0.62282 1.47346,-1.00382 2.42517,-1.00435 0.9517,5.3e-4 1.79996,0.38153 2.42517,1.00435 0.622831,0.62495 1.003561,1.4732 1.004361,2.42491 h 1.42213 1.42214 c 7.9e-4,-1.72799 -0.70459,-3.30544 -1.83753,-4.43653 -1.13083,-1.13321 -2.708281,-1.83806 -4.436541,-1.83753 -1.72799,-5.3e-4 -3.30544,0.70432 -4.43653,1.83753 -1.13321,1.13083 -1.83833,2.70827 -1.83753,4.43653 -8e-4,1.72799 0.70458,3.30544 1.83753,4.43653 1.13083,1.13295 2.70854,1.83806 4.43653,1.83754 1.728,5.2e-4 3.305711,-0.70459 4.436541,-1.83754 1.13321,-1.13082 1.83832,-2.70827 1.83753,-4.43653 z"
       id="path128"
       style="fill:#99adb7;fill-opacity:1;stroke-width:0.264583" />
    <circle
       fill="#f5f5f5"
       cx="97.498466"
       cy="137.33301"
       r="4.8516645"
       id="circle130"
       style="stroke-width:0.264583" />
    <path
       fill="#99adb7"
       d="m 113.02131,139.28958 h -1.4224 c -5.3e-4,0.95171 -0.38153,1.79997 -1.00462,2.42518 -0.62495,0.62282 -1.47347,1.00382 -2.42517,1.00435 -0.95144,-5.3e-4 -1.79996,-0.38153 -2.42491,-1.00435 -0.62283,-0.62521 -1.00383,-1.47347 -1.00462,-2.42518 7.9e-4,-0.9517 0.38153,-1.79996 1.00436,-2.4249 0.62521,-0.62283 1.47346,-1.00383 2.42517,-1.00436 0.9517,5.3e-4 1.80022,0.38153 2.42543,1.00436 0.62283,0.62494 1.00383,1.4732 1.00436,2.4249 h 1.4224 1.4224 c 5.3e-4,-1.72799 -0.70458,-3.3057 -1.83779,-4.43653 -1.1311,-1.13321 -2.70854,-1.83806 -4.4368,-1.83753 -1.728,-5.3e-4 -3.30544,0.70432 -4.43627,1.83753 -1.13321,1.13057 -1.83859,2.70828 -1.8378,4.43653 -7.9e-4,1.728 0.70459,3.30571 1.83754,4.43654 1.13082,1.13321 2.70827,1.83832 4.43653,1.83779 1.72799,5.3e-4 3.3057,-0.70458 4.4368,-1.83753 1.13321,-1.13083 1.83832,-2.70854 1.83779,-4.4368 z"
       id="path132"
       style="fill:#99adb7;fill-opacity:1;stroke-width:0.264583" />
    <circle
       fill="#f5f5f5"
       cx="108.16938"
       cy="139.2896"
       r="4.8519287"
       id="circle134"
       style="stroke-width:0.264583" />
    <path
       fill="#4c7189"
       d="m 123.57342,133.62115 h -1.4224 c -5.2e-4,0.95171 -0.38152,1.79996 -1.00435,2.42517 -0.62521,0.62283 -1.47347,1.00383 -2.42517,1.00436 -0.95145,-5.3e-4 -1.7997,-0.38126 -2.42465,-1.00436 -0.62283,-0.62494 -1.00383,-1.47346 -1.00435,-2.42517 5.2e-4,-0.9517 0.38126,-1.79996 1.00435,-2.4249 0.62495,-0.62283 1.47294,-1.00383 2.42465,-1.00436 0.9517,5.3e-4 1.80022,0.38153 2.42517,1.00436 0.62283,0.62494 1.00383,1.4732 1.00435,2.4249 h 1.4224 1.4224 c 5.3e-4,-1.72799 -0.70458,-3.30544 -1.83779,-4.43653 -1.13083,-1.13321 -2.70828,-1.83806 -4.43653,-1.83753 -1.728,-5.3e-4 -3.30544,0.70458 -4.43627,1.83753 -1.13321,1.13083 -1.83806,2.70827 -1.83753,4.43653 -5.3e-4,1.728 0.70432,3.30544 1.83753,4.43653 1.13056,1.13322 2.70801,1.83833 4.43627,1.8378 1.72799,5.3e-4 3.3057,-0.70458 4.43653,-1.8378 1.13321,-1.13082 1.83832,-2.70827 1.83779,-4.43653 z"
       id="path136"
       style="fill:#99adb7;fill-opacity:1;stroke-width:0.264583" />
    <circle
       fill="#f5f5f5"
       cx="118.72176"
       cy="133.62117"
       r="4.8516645"
       id="circle138"
       style="stroke-width:0.264583" />
    <polyline
       fill="#f5f5f5"
       points="433.623,589.285 476.75,559.402 472.689,553.54 429.562,583.424  "
       id="polyline140"
       transform="matrix(0.26458333,0,0,0.26458333,-26.713081,-11.330027)" />
    <polygon
       fill="#f5f5f5"
       points="477.167,562.086 517.084,575.83 564.936,539.869 560.405,534.361 515.772,567.676 479.742,555.436 "
       id="polygon142"
       transform="matrix(0.26458333,0,0,0.26458333,-26.713081,-11.330027)" />
    <polygon
       fill="#4c7189"
       points="436.095,593.388 426.754,582.013 426.754,593.388 422.472,593.388 422.472,574.653 426.059,574.653 435.373,586.027 435.373,574.653 439.655,574.653 439.655,593.388 "
       id="polygon144"
       transform="matrix(0.26458333,0,0,0.26458333,-26.713081,-11.330027)"
       style="fill:#1275a3;fill-opacity:1" />
    <path
       fill="#99adb7"
       d="m 95.111399,137.43247 c 0,-1.4941 1.14697,-2.56328 2.69081,-2.56328 0.85699,0 1.57216,0.31168 2.03941,0.87789 l -0.73633,0.67971 c -0.33285,-0.38232 -0.75063,-0.58049 -1.24619,-0.58049 -0.92763,0 -1.58618,0.6514 -1.58618,1.58617 0,0.93451 0.65855,1.58618 1.58618,1.58618 0.49583,0 0.91361,-0.19844 1.24619,-0.5879 l 0.73633,0.67971 c -0.46725,0.57362 -1.18242,0.8853 -2.04628,0.8853 -1.5367,0 -2.68394,-1.06918 -2.68394,-2.56329 z"
       id="path146"
       style="fill:#1275a3;fill-opacity:1;stroke-width:0.264583" />
    <path
       fill="#4c7189"
       d="m 105.79131,139.37981 c 0,-1.4941 1.14723,-2.56329 2.69081,-2.56329 0.85672,0 1.57189,0.31168 2.03941,0.87789 l -0.73634,0.67972 c -0.33284,-0.38233 -0.75062,-0.5805 -1.24645,-0.5805 -0.92763,0 -1.58618,0.6514 -1.58618,1.58618 0,0.93451 0.65855,1.58617 1.58618,1.58617 0.49583,0 0.91361,-0.19843 1.24645,-0.5879 l 0.73634,0.67972 c -0.46752,0.57361 -1.18269,0.88529 -2.04629,0.88529 -1.5367,2.7e-4 -2.68393,-1.06892 -2.68393,-2.56328 z"
       id="path148"
       style="fill:#1275a3;fill-opacity:1;stroke-width:0.264583" />
    <path
       fill="#99adb7"
       d="m 116.83025,135.49546 0.38973,-0.86413 c 0.41778,0.30454 1.04088,0.517 1.63592,0.517 0.67972,0 0.95568,-0.22649 0.95568,-0.53102 0,-0.9279 -2.88211,-0.29051 -2.88211,-2.13175 0,-0.8427 0.67972,-1.54358 2.08915,-1.54358 0.6231,0 1.26048,0.1487 1.72085,0.43894 l -0.35427,0.87101 c -0.46012,-0.26193 -0.93451,-0.38946 -1.37372,-0.38946 -0.67945,0 -0.94192,0.25479 -0.94192,0.56647 0,0.91334 2.88237,0.2831 2.88237,2.10317 0,0.82841 -0.68712,1.5367 -2.10317,1.5367 -0.78608,2.7e-4 -1.57903,-0.23363 -2.01851,-0.57335 z"
       id="path150"
       style="fill:#1275a3;fill-opacity:1;stroke-width:0.264583" />
    <path
       sodipodi:type="star"
       style="fill:none;fill-opacity:1;stroke:#ffffff;stroke-opacity:1"
       id="path11541"
       inkscape:flatsided="true"
       sodipodi:sides="6"
       sodipodi:cx="-253.68208"
       sodipodi:cy="162.26511"
       sodipodi:r1="133.66312"
       sodipodi:r2="75.367035"
       sodipodi:arg1="0.52868983"
       sodipodi:arg2="1.0522886"
       inkscape:rounded="0"
       inkscape:randomized="0"
       d="m -138.26817,229.68511 -116.0944,66.24138 -115.41391,-67.42001 0.68048,-133.661382 116.0944,-66.241376 115.41391,67.420008 z"
       transform="matrix(0.31133229,0,0,0.28028868,182.71642,85.665603)" />
    <text
       xml:space="preserve"
       style="font-size:9.87777px;line-height:0.7;font-family:sans-serif;-inkscape-font-specification:sans-serif;text-align:center;text-anchor:middle;fill:#ffffff;fill-opacity:1;stroke:#ffffff;stroke-width:0.264583;stroke-opacity:1"
       x="102.82996"
       y="118.14594"
       id="text13667"><tspan
         sodipodi:role="line"
         id="tspan13665"
         x="102.82996"
         y="118.14594"
         style="font-size:9.87777px;fill:#ffffff;fill-opacity:1;stroke-width:0.264583">nccsdata</tspan></text>
  </g>
</svg>
